<svg width="200" height="70" viewBox="0 0 200 70" fill="none" xmlns="http://www.w3.org/2000/svg">
<path d="M22.1872 29H0.787188V1.16H11.6272C13.9472 1.16 15.8405 1.57333 17.3072 2.4C18.7472 3.2 19.8672 4.29333 20.6672 5.68C21.4672 7.06667 21.8672 8.6 21.8672 10.28C21.8672 12.36 21.2272 14.2267 19.9472 15.88C18.6672 17.5067 17.0539 18.5867 15.1072 19.12L22.1872 29ZM3.30719 2.64L14.1872 17.84C15.9739 17.4667 17.4539 16.5733 18.6272 15.16C19.8005 13.7467 20.3872 12.12 20.3872 10.28C20.3872 8.81333 20.0272 7.48 19.3072 6.28C18.5872 5.08 17.5739 4.16 16.2672 3.52C15.0939 2.93333 13.5605 2.64 11.6672 2.64H3.30719ZM2.26719 3.6V17.96H12.5472L2.26719 3.6ZM2.26719 27.52H19.3872L13.5472 19.4L12.3072 19.44H2.26719V27.52ZM40.2766 0.559999C42.3566 0.559999 44.2766 1.08 46.0366 2.12C47.7966 3.13333 49.1832 4.52 50.1966 6.28C51.2366 8.04 51.7566 9.96 51.7566 12.04V18.12C51.7566 20.2 51.2366 22.12 50.1966 23.88C49.1832 25.64 47.7966 27.04 46.0366 28.08C44.2766 29.0933 42.3566 29.6 40.2766 29.6C38.1966 29.6 36.2766 29.0933 34.5166 28.08C32.7566 27.04 31.3566 25.64 30.3166 23.88C29.3032 22.12 28.7966 20.2 28.7966 18.12V12.04C28.7966 9.96 29.3032 8.04 30.3166 6.28C31.3566 4.52 32.7566 3.13333 34.5166 2.12C36.2766 1.08 38.1966 0.559999 40.2766 0.559999ZM30.2766 18.12C30.2766 19.9333 30.7166 21.6133 31.5966 23.16C32.5032 24.68 33.7166 25.8933 35.2366 26.8C36.7832 27.68 38.4632 28.12 40.2766 28.12C42.0899 28.12 43.7566 27.68 45.2766 26.8C46.8232 25.8933 48.0366 24.68 48.9166 23.16C49.8232 21.6133 50.2766 19.9333 50.2766 18.12V12.04C50.2766 10.2267 49.8232 8.56 48.9166 7.04C48.0366 5.49333 46.8232 4.28 45.2766 3.4C43.7566 2.49333 42.0899 2.04 40.2766 2.04C38.4632 2.04 36.7832 2.49333 35.2366 3.4C33.7166 4.28 32.5032 5.49333 31.5966 7.04C30.7166 8.56 30.2766 10.2267 30.2766 12.04V18.12ZM69.6059 1.16C71.6326 1.16 73.4993 1.66666 75.2059 2.68C76.9393 3.69333 78.3126 5.06667 79.3259 6.8C80.3393 8.50667 80.8459 10.3733 80.8459 12.4V17.76C80.8459 19.7867 80.3393 21.6667 79.3259 23.4C78.3126 25.1067 76.9393 26.4667 75.2059 27.48C73.4993 28.4933 71.6326 29 69.6059 29H59.3259V1.16H69.6059ZM79.3659 12.4C79.3659 10.64 78.9259 9.01333 78.0459 7.52C77.1659 6.02667 75.9659 4.84 74.4459 3.96C72.9526 3.08 71.3259 2.64 69.5659 2.64H60.8059V27.52H69.5659C71.3259 27.52 72.9526 27.08 74.4459 26.2C75.9659 25.32 77.1659 24.1333 78.0459 22.64C78.9259 21.1467 79.3659 19.52 79.3659 17.76V12.4ZM105.535 2.08C107.135 2.82667 108.389 3.93333 109.295 5.4C110.229 6.86667 110.695 8.49333 110.695 10.28C110.695 12.36 110.055 14.2267 108.775 15.88C107.522 17.5067 105.909 18.5867 103.935 19.12L111.015 29H109.255L102.415 19.4L101.135 19.44H91.0953V29H89.6153V1.16H100.215C101.389 1.16 102.389 1.24 103.215 1.4C104.069 1.53333 104.842 1.76 105.535 2.08ZM101.535 17.96C102.922 17.96 104.202 17.6133 105.375 16.92C106.549 16.2267 107.482 15.2933 108.175 14.12C108.869 12.9467 109.215 11.6667 109.215 10.28C109.215 8.73333 108.802 7.33333 107.975 6.08C107.175 4.82667 106.055 3.89333 104.615 3.28C103.575 2.85333 102.109 2.64 100.215 2.64H91.0953V17.96H101.535ZM138.145 1.16V2.64H129.825V27.52H138.145V29H120.105V27.52H128.385V2.64H120.105V1.16H138.145ZM168.514 23.28C167.794 25.12 166.487 26.64 164.594 27.84C162.701 29.0133 160.674 29.6 158.514 29.6C156.434 29.6 154.514 29.08 152.754 28.04C150.994 27 149.594 25.5733 148.554 23.76C147.541 21.92 147.034 19.9067 147.034 17.72V12.12C147.034 9.98667 147.541 8.04 148.554 6.28C149.594 4.52 150.981 3.13333 152.714 2.12C154.474 1.08 156.407 0.559999 158.514 0.559999C160.247 0.559999 161.834 0.853333 163.274 1.44C164.714 2 165.941 2.82667 166.954 3.92C167.781 4.82666 168.447 5.84 168.954 6.96C169.487 8.08 169.754 9.21333 169.754 10.36H168.314C168.287 9.37333 168.034 8.4 167.554 7.44C167.101 6.48 166.514 5.61333 165.794 4.84C164.007 2.97333 161.581 2.04 158.514 2.04C156.674 2.04 154.981 2.49333 153.434 3.4C151.914 4.28 150.714 5.49333 149.834 7.04C148.954 8.56 148.514 10.2533 148.514 12.12V17.72C148.514 19.6667 148.954 21.44 149.834 23.04C150.741 24.6133 151.954 25.8533 153.474 26.76C155.021 27.6667 156.701 28.12 158.514 28.12C160.354 28.12 162.034 27.68 163.554 26.8C165.101 25.8933 166.314 24.68 167.194 23.16C168.074 21.6133 168.514 19.9333 168.514 18.12V16.72H158.514V15.24H169.994V29H168.514V23.28ZM188.323 0.559999C190.403 0.559999 192.323 1.08 194.083 2.12C195.843 3.13333 197.23 4.52 198.243 6.28C199.283 8.04 199.803 9.96 199.803 12.04V18.12C199.803 20.2 199.283 22.12 198.243 23.88C197.23 25.64 195.843 27.04 194.083 28.08C192.323 29.0933 190.403 29.6 188.323 29.6C186.243 29.6 184.323 29.0933 182.563 28.08C180.803 27.04 179.403 25.64 178.363 23.88C177.35 22.12 176.843 20.2 176.843 18.12V12.04C176.843 9.96 177.35 8.04 178.363 6.28C179.403 4.52 180.803 3.13333 182.563 2.12C184.323 1.08 186.243 0.559999 188.323 0.559999ZM178.323 18.12C178.323 19.9333 178.763 21.6133 179.643 23.16C180.55 24.68 181.763 25.8933 183.283 26.8C184.83 27.68 186.51 28.12 188.323 28.12C190.137 28.12 191.803 27.68 193.323 26.8C194.87 25.8933 196.083 24.68 196.963 23.16C197.87 21.6133 198.323 19.9333 198.323 18.12V12.04C198.323 10.2267 197.87 8.56 196.963 7.04C196.083 5.49333 194.87 4.28 193.323 3.4C191.803 2.49333 190.137 2.04 188.323 2.04C186.51 2.04 184.83 2.49333 183.283 3.4C181.763 4.28 180.55 5.49333 179.643 7.04C178.763 8.56 178.323 10.2267 178.323 12.04V18.12ZM1.42719 69V41.16H13.0672C15.0139 41.16 16.6939 41.52 18.1072 42.24C19.7339 43.0667 21.0272 44.2533 21.9872 45.8C22.9472 47.32 23.4272 49 23.4272 50.84C23.4272 52.68 22.9472 54.3733 21.9872 55.92C21.0539 57.4667 19.7739 58.6533 18.1472 59.48C16.7605 60.2 15.0672 60.56 13.0672 60.56H8.70719V69H1.42719ZM39.5166 41.16H41.0766L52.5166 69H50.9166L47.1566 59.8H33.4366L29.6366 69H28.0766L39.5166 41.16ZM34.0366 58.36H46.5566L40.2766 43.08L34.0366 58.36ZM79.6859 63.28C78.9659 65.12 77.6593 66.64 75.7659 67.84C73.8726 69.0133 71.8459 69.6 69.6859 69.6C67.6059 69.6 65.6859 69.08 63.9259 68.04C62.1659 67 60.7659 65.5733 59.7259 63.76C58.7126 61.92 58.2059 59.9067 58.2059 57.72V52.12C58.2059 49.9867 58.7126 48.04 59.7259 46.28C60.7659 44.52 62.1526 43.1333 63.8859 42.12C65.6459 41.08 67.5793 40.56 69.6859 40.56C71.4193 40.56 73.0059 40.8533 74.4459 41.44C75.8859 42 77.1126 42.8267 78.1259 43.92C78.9526 44.8267 79.6193 45.84 80.1259 46.96C80.6593 48.08 80.9259 49.2133 80.9259 50.36H79.4859C79.4593 49.3733 79.2059 48.4 78.7259 47.44C78.2726 46.48 77.6859 45.6133 76.9659 44.84C75.1793 42.9733 72.7526 42.04 69.6859 42.04C67.8459 42.04 66.1526 42.4933 64.6059 43.4C63.0859 44.28 61.8859 45.4933 61.0059 47.04C60.1259 48.56 59.6859 50.2533 59.6859 52.12V57.72C59.6859 59.6667 60.1259 61.44 61.0059 63.04C61.9126 64.6133 63.1259 65.8533 64.6459 66.76C66.1926 67.6667 67.8726 68.12 69.6859 68.12C71.5259 68.12 73.2059 67.68 74.7259 66.8C76.2726 65.8933 77.4859 64.68 78.3659 63.16C79.2459 61.6133 79.6859 59.9333 79.6859 58.12V56.72H69.6859V55.24H81.1659V69H79.6859V63.28ZM99.4953 40.56C101.575 40.56 103.495 41.08 105.255 42.12C107.015 43.1333 108.402 44.52 109.415 46.28C110.455 48.04 110.975 49.96 110.975 52.04V58.12C110.975 60.2 110.455 62.12 109.415 63.88C108.402 65.64 107.015 67.04 105.255 68.08C103.495 69.0933 101.575 69.6 99.4953 69.6C97.4153 69.6 95.4953 69.0933 93.7353 68.08C91.9753 67.04 90.5753 65.64 89.5353 63.88C88.522 62.12 88.0153 60.2 88.0153 58.12V52.04C88.0153 49.96 88.522 48.04 89.5353 46.28C90.5753 44.52 91.9753 43.1333 93.7353 42.12C95.4953 41.08 97.4153 40.56 99.4953 40.56ZM89.4953 58.12C89.4953 59.9333 89.9353 61.6133 90.8153 63.16C91.722 64.68 92.9353 65.8933 94.4553 66.8C96.002 67.68 97.682 68.12 99.4953 68.12C101.309 68.12 102.975 67.68 104.495 66.8C106.042 65.8933 107.255 64.68 108.135 63.16C109.042 61.6133 109.495 59.9333 109.495 58.12V52.04C109.495 50.2267 109.042 48.56 108.135 47.04C107.255 45.4933 106.042 44.28 104.495 43.4C102.975 42.4933 101.309 42.04 99.4953 42.04C97.682 42.04 96.002 42.4933 94.4553 43.4C92.9353 44.28 91.722 45.4933 90.8153 47.04C89.9353 48.56 89.4953 50.2267 89.4953 52.04V58.12ZM140.345 41.16V42.64H129.825V69H128.385V42.64H117.865V41.16H140.345ZM169.954 41.16V42.64H159.434V69H157.994V42.64H147.474V41.16H169.954ZM188.323 40.56C190.403 40.56 192.323 41.08 194.083 42.12C195.843 43.1333 197.23 44.52 198.243 46.28C199.283 48.04 199.803 49.96 199.803 52.04V58.12C199.803 60.2 199.283 62.12 198.243 63.88C197.23 65.64 195.843 67.04 194.083 68.08C192.323 69.0933 190.403 69.6 188.323 69.6C186.243 69.6 184.323 69.0933 182.563 68.08C180.803 67.04 179.403 65.64 178.363 63.88C177.35 62.12 176.843 60.2 176.843 58.12V52.04C176.843 49.96 177.35 48.04 178.363 46.28C179.403 44.52 180.803 43.1333 182.563 42.12C184.323 41.08 186.243 40.56 188.323 40.56ZM178.323 58.12C178.323 59.9333 178.763 61.6133 179.643 63.16C180.55 64.68 181.763 65.8933 183.283 66.8C184.83 67.68 186.51 68.12 188.323 68.12C190.137 68.12 191.803 67.68 193.323 66.8C194.87 65.8933 196.083 64.68 196.963 63.16C197.87 61.6133 198.323 59.9333 198.323 58.12V52.04C198.323 50.2267 197.87 48.56 196.963 47.04C196.083 45.4933 194.87 44.28 193.323 43.4C191.803 42.4933 190.137 42.04 188.323 42.04C186.51 42.04 184.83 42.4933 183.283 43.4C181.763 44.28 180.55 45.4933 179.643 47.04C178.763 48.56 178.323 50.2267 178.323 52.04V58.12Z" fill="#FBFAFA"/>
</svg>
