<svg width="406" height="278" viewBox="0 0 406 278" fill="none" xmlns="http://www.w3.org/2000/svg">
<path opacity="0.3" d="M357.309 131.484C381.415 139.287 400.111 161.227 404.963 188.672C409.049 211.81 402.27 240.228 362.663 253.432C322.235 266.9 209.18 273.378 188.205 235.88C167.23 198.382 171.58 150.289 214.684 133.199C244.892 121.28 310.23 116.238 357.309 131.484Z" fill="#E6E6E6"/>
<path d="M361 260H294V276H361V260Z" fill="#C9C9C9"/>
<path d="M366 244H306V260H366V244Z" fill="#E6E6E6"/>
<path d="M238.519 271C238.519 271 237.57 274.03 235.178 274.293C232.787 274.557 232.168 277.199 234.316 277.899C236.464 278.599 242 275.429 242 275.429L241.843 271.478L238.519 271Z" fill="#68E1FD"/>
<path d="M271.864 271C271.864 271 272.928 274.03 275.579 274.293C278.231 274.557 278.929 277.199 276.539 277.899C274.149 278.599 268 275.429 268 275.429L268.166 271.478L271.864 271Z" fill="#68E1FD"/>
<path d="M247.434 215.049L238 272H242.717L254.541 241.081C258.532 230.373 265.903 221.27 275.53 215.16L279 213L247.434 215.049Z" fill="#24285B"/>
<path d="M279 213L274.121 272H267.852C267.852 272 269.314 227.599 258 218.143L279 213Z" fill="#24285B"/>
<path d="M280.607 164C280.607 164 305.029 190.058 322 197.994L318.802 206C318.802 206 277.689 192.081 269.911 181.257C262.133 170.432 280.607 164 280.607 164Z" fill="#68E1FD"/>
<path opacity="0.46" d="M280.607 164C280.607 164 305.029 190.058 322 197.994L318.802 206C318.802 206 277.689 192.081 269.911 181.257C262.133 170.432 280.607 164 280.607 164Z" fill="white"/>
<path d="M258.383 139.979C258.383 139.979 259.294 144.196 258.902 147.12C258.863 147.403 258.766 147.675 258.616 147.922C258.467 148.168 258.268 148.384 258.031 148.557C257.795 148.73 257.525 148.856 257.237 148.929C256.949 149.001 256.649 149.019 256.354 148.98C255.396 148.912 254.479 148.58 253.712 148.025C252.946 147.47 252.363 146.714 252.033 145.849L250.236 142.26C249.954 141.505 249.924 140.685 250.15 139.913C250.376 139.14 250.847 138.455 251.498 137.951C253.798 135.93 257.96 137.377 258.383 139.979Z" fill="#F4A28C"/>
<path d="M250.573 143L250 158L258 157.74L255.205 146.929L250.573 143Z" fill="#F4A28C"/>
<path d="M257.709 139.987C256.359 140.201 254.988 140.258 253.625 140.155C254.087 140.717 254.378 141.405 254.461 142.133C254.545 142.861 254.418 143.599 254.096 144.254C253.798 144.895 253.289 145.411 252.659 145.711C252.028 146.012 251.315 146.08 250.641 145.904L250.044 140.139C249.931 139.318 250.037 138.482 250.353 137.718C250.668 136.954 251.18 136.291 251.834 135.799C252.401 135.371 252.994 134.98 253.609 134.63C255.18 133.773 257.662 134.63 258.989 133.293C259.124 133.165 259.289 133.075 259.468 133.031C259.647 132.987 259.834 132.99 260.011 133.041C260.189 133.091 260.35 133.187 260.481 133.32C260.611 133.452 260.706 133.617 260.756 133.797C261.212 135.519 261.228 138.313 259.013 139.546C258.605 139.766 258.165 139.914 257.709 139.987V139.987Z" fill="#24285B"/>
<path d="M254 144.556C254 144.556 253.797 142.729 252.678 143.035C251.56 143.34 251.846 145.975 253.378 146L254 144.556Z" fill="#F4A28C"/>
<path d="M259.493 143L260.831 144.453C260.905 144.535 260.957 144.634 260.982 144.741C261.008 144.848 261.006 144.959 260.977 145.065C260.947 145.171 260.892 145.268 260.815 145.348C260.738 145.427 260.643 145.487 260.537 145.521L259 146L259.493 143Z" fill="#F4A28C"/>
<path opacity="0.31" d="M256.037 149.264C254.913 149.128 253.857 148.688 253 148C253 148 253.469 150.689 257 153L256.037 149.264Z" fill="#CE8172"/>
<path d="M279.543 213.661L265.768 214.663L247.604 216C247.211 215.443 231.691 193.275 232.005 176.342C232.173 167.399 236.754 159.927 250.289 157.842L255.858 157.667C257.217 157.624 258.572 157.504 259.917 157.309C264.217 156.665 277.132 155.877 284.148 167.971C292.611 182.62 279.543 213.661 279.543 213.661Z" fill="#68E1FD"/>
<path opacity="0.08" d="M266 214.825L247.563 216C247.171 215.444 231.692 193.318 232.005 176.417C242.425 171.652 259.259 170 259.259 170C259.259 170 262.697 173.51 258.609 178.355C253.583 184.311 251.812 192.46 254.81 199.64C256.75 204.262 259.515 211.6 265.663 214.674L266 214.825Z" fill="black"/>
<path d="M257.382 163.978C255.777 161.833 253.54 160.267 250.999 159.509C248.458 158.752 245.746 158.841 243.258 159.766C233.879 163.15 217.848 171.231 216.12 187.251C213.674 210.008 249.386 215 249.386 215L250.543 209.211C250.543 209.211 213.549 188.143 249.386 177.529C249.386 177.529 263.721 172.704 257.382 163.978Z" fill="#68E1FD"/>
<path opacity="0.46" d="M257.382 163.978C255.777 161.833 253.54 160.267 250.999 159.509C248.458 158.752 245.746 158.841 243.258 159.766C233.879 163.15 217.848 171.231 216.12 187.251C213.674 210.008 249.386 215 249.386 215L250.543 209.211C250.543 209.211 213.549 188.143 249.386 177.529C249.386 177.529 263.721 172.704 257.382 163.978Z" fill="white"/>
<path d="M251.139 210C251.139 210 256.894 210.112 255.88 213.994C254.866 217.876 250 214.928 250 214.928L251.139 210Z" fill="#F4A28C"/>
<path d="M321.972 199.545C322.036 199.396 328.08 198.719 328.461 199.132C329.32 200.082 327.117 200.47 327.117 200.47C327.117 200.47 330.394 200.47 330.863 201.09C331.332 201.71 330.664 203.404 327.785 204.454C324.907 205.503 320 204.718 320 204.718L321.972 199.545Z" fill="#F4A28C"/>
<path d="M325 201C332.732 201 339 196.747 339 191.5C339 186.253 332.732 182 325 182C317.268 182 311 186.253 311 191.5C311 196.747 317.268 201 325 201Z" fill="#C9C9C9"/>
<path d="M325 176C343.778 176 359 160.778 359 142C359 123.222 343.778 108 325 108C306.222 108 291 123.222 291 142C291 160.778 306.222 176 325 176Z" fill="#FFD200"/>
<path d="M340 173H310V194H340V173Z" fill="#24285B"/>
<path d="M317.724 173C317.724 171.349 311 139 311 139H338L330.714 173" stroke="#24285B" stroke-width="1.015" stroke-miterlimit="10"/>
<path opacity="0.58" d="M348.405 235.497C348.405 235.497 341.509 233.828 340 228.152C340 228.152 350.698 226.239 351 236L348.405 235.497Z" fill="#68E1FD"/>
<path opacity="0.73" d="M348.937 234.992C348.937 234.992 344.92 228.276 348.456 222C348.456 222 355.241 226.553 352.229 235L348.937 234.992Z" fill="#68E1FD"/>
<path d="M350 234.976C350 234.976 352.487 227.43 359.866 226C359.866 226 361.259 230.904 355.066 235L350 234.976Z" fill="#68E1FD"/>
<path d="M346 235L347.213 243.968L354.869 244L356 235.048L346 235Z" fill="#24285B"/>
<path opacity="0.48" d="M235.684 7H26.3159C23.38 7 21 9.38143 21 12.3191V142.681C21 145.619 23.38 148 26.3159 148H235.684C238.62 148 241 145.619 241 142.681V12.3191C241 9.38143 238.62 7 235.684 7Z" fill="#21ABCB"/>
<path opacity="0.18" d="M235.982 158.244C235.822 162.839 234.77 167.517 232.199 171.326C228.96 176.122 223.7 179.091 218.606 181.882L204.161 189.836C197.832 193.325 191.159 196.897 183.943 196.997C178.836 197.074 173.896 195.389 168.984 193.976C146.047 187.352 121.886 186.424 98.1746 188.097C86.0292 188.955 73.943 190.463 61.9099 192.278C52.2822 193.709 40.7279 198.47 32.0459 192.834C22.5896 186.684 16.7858 176.725 11.443 167.056C6.79175 158.664 2.07544 150.066 0.538803 140.598C-1.82526 125.967 3.83667 110.94 12.696 99.0534C15.3603 95.5035 18.2693 92.1442 21.4017 89V142.715C21.4016 144.121 21.958 145.471 22.9491 146.468C23.9403 147.465 25.2856 148.029 26.6912 148.037H235.018C235.76 151.387 236.084 154.815 235.982 158.244V158.244Z" fill="#21ABCB"/>
<path opacity="0.18" d="M158 7H102C104.108 5.46676 106.397 4.17693 108.821 3.1573C113.248 1.30985 118.072 0.4856 122.885 0.155901C134.994 -0.679716 147.139 1.87829 158 7Z" fill="#21ABCB"/>
<path d="M106.825 130.431C107.369 131.15 108.021 131.78 108.759 132.297C109.857 132.888 111.065 133.246 112.308 133.348L131.185 136.189C131.373 136.202 131.555 136.263 131.712 136.366C131.817 136.479 131.896 136.614 131.944 136.761C131.992 136.908 132.007 137.063 131.99 137.216C132.077 140.745 131.6 144.266 130.576 147.645C130.523 147.921 130.389 148.176 130.192 148.377C129.937 148.549 129.636 148.64 129.328 148.637C122.977 149.174 116.595 149.003 110.226 148.832C109.155 148.847 108.086 148.73 107.044 148.483C105.27 147.987 103.821 146.777 102.484 145.531C99.6161 142.867 88.0067 132.162 87.303 130.709C86.3697 128.628 85.6178 126.47 85.0556 124.261C84.4642 122.135 88.7874 121.869 88.6987 119.661C88.6363 118.133 88.82 116.606 89.2428 115.137C89.5575 113.827 90.2099 112.622 91.1353 111.641C91.7858 111.051 90.7804 107.047 91.6794 107C92.7203 110.543 97.4279 117.629 99.4741 120.664C101.749 124.048 104.202 127.309 106.825 130.431V130.431Z" fill="#21ABCB"/>
<path d="M106.825 130.431C107.369 131.15 108.021 131.78 108.759 132.297C109.857 132.888 111.065 133.246 112.308 133.348L131.185 136.189C131.373 136.202 131.555 136.263 131.712 136.366C131.817 136.479 131.896 136.614 131.944 136.761C131.992 136.908 132.007 137.063 131.99 137.216C132.077 140.745 131.6 144.266 130.576 147.645C130.523 147.921 130.389 148.176 130.192 148.377C129.937 148.549 129.636 148.64 129.328 148.637C122.977 149.174 116.595 149.003 110.226 148.832C109.155 148.847 108.086 148.73 107.044 148.483C105.27 147.987 103.821 146.777 102.484 145.531C99.6161 142.867 88.0067 132.162 87.303 130.709C86.3697 128.628 85.6178 126.47 85.0556 124.261C84.4642 122.135 88.7874 121.869 88.6987 119.661C88.6363 118.133 88.82 116.606 89.2428 115.137C89.5575 113.827 90.2099 112.622 91.1353 111.641C91.7858 111.051 90.7804 107.047 91.6794 107C92.7203 110.543 97.4279 117.629 99.4741 120.664C101.749 124.048 104.202 127.309 106.825 130.431V130.431Z" fill="url(#paint0_linear_69019_2)"/>
<path d="M59.0134 100.277C57.7158 101.417 56.5053 102.651 55.3918 103.967C52.724 107.199 50.9494 111.044 49.2956 114.877C44.8955 125.078 41.0627 135.988 42.2035 147.017C42.225 147.68 42.4071 148.329 42.7346 148.909C43.2541 149.566 43.9839 150.029 44.8049 150.225C46.9235 150.891 49.187 150.921 51.4444 150.939C60.1421 151.016 68.8518 151.094 77.5435 150.677C78.8895 150.611 80.314 150.51 81.4306 149.76C82.2462 149.145 82.8969 148.342 83.3259 147.421C85.6617 143.088 86.3438 138.077 88.1546 133.518C90.5689 127.566 97.2084 122.156 95.808 115.883C89.8205 89.2482 61.7536 97.8188 59.0134 100.277Z" fill="#21ABCB"/>
<path d="M59.0134 100.277C57.7158 101.417 56.5053 102.651 55.3918 103.967C52.724 107.199 50.9494 111.044 49.2956 114.877C44.8955 125.078 41.0627 135.988 42.2035 147.017C42.225 147.68 42.4071 148.329 42.7346 148.909C43.2541 149.566 43.9839 150.029 44.8049 150.225C46.9235 150.891 49.187 150.921 51.4444 150.939C60.1421 151.016 68.8518 151.094 77.5435 150.677C78.8895 150.611 80.314 150.51 81.4306 149.76C82.2462 149.145 82.8969 148.342 83.3259 147.421C85.6617 143.088 86.3438 138.077 88.1546 133.518C90.5689 127.566 97.2084 122.156 95.808 115.883C89.8205 89.2482 61.7536 97.8188 59.0134 100.277Z" fill="url(#paint1_linear_69019_2)"/>
<path d="M97.585 77.9583C96.6065 82.7888 95.5816 87.7486 92.9528 91.9083C91.9945 93.588 90.6083 94.9741 88.9402 95.9209C87.2437 96.7858 85.0897 96.9035 83.5032 95.8444C82.7099 95.3208 81.8414 94.4971 80.9787 94.8854C80.3533 95.1737 80.1507 95.9621 80.0638 96.6505C79.8465 98.3415 79.8699 100.056 80.1333 101.74C80.2407 102.214 80.2681 102.704 80.2144 103.187C80.1022 103.635 79.8647 104.04 79.5308 104.353C79.1968 104.666 78.7806 104.874 78.3325 104.952C77.4368 105.085 76.5224 104.939 75.7096 104.535C74.4451 103.96 73.3385 103.079 72.4866 101.969C71.6347 100.86 71.0634 99.5545 70.8226 98.1685C70.7012 97.2322 70.6431 96.2887 70.6489 95.3443C70.5389 91.1552 69.8846 86.9838 70.0178 82.8005C70.151 78.6173 71.1758 74.2635 73.9725 71.1746C75.5876 69.4926 77.5063 68.1422 79.6238 67.1973C82.7794 65.6675 86.2999 64.5908 89.7508 65.1498C91.1241 65.3702 92.4341 65.8904 93.5906 66.6745C94.7471 67.4586 95.7226 68.488 96.4501 69.6919C98.2567 72.5101 98.2625 74.6106 97.585 77.9583Z" fill="#FFDAD2"/>
<path d="M106.927 67.6435C107.171 65.6747 106.799 63.6796 105.863 61.9238C104.926 60.1679 103.468 58.7345 101.684 57.8143C100.096 57.0355 98.328 56.7051 96.6141 56.2567C92.5991 55.1947 88.7458 53.4365 84.6289 53.0589C80.512 52.6813 75.7779 54.1032 73.9441 57.7789C73.6086 58.4514 73.279 59.2656 72.5419 59.4426C72.1392 59.4853 71.7319 59.4492 71.3434 59.3364C68.5928 58.8585 66.1178 61.1713 64.8774 63.6316C62.8758 67.614 62.774 72.2573 63.2114 76.6763C63.6129 80.765 64.6736 85.184 68.0055 87.6738C68.3351 87.9216 68.8205 88.1458 69.1381 87.8803C69.2835 87.7306 69.3742 87.5376 69.3958 87.3316C69.7309 85.7813 69.8558 84.1942 69.7673 82.6116C69.7014 81.4317 69.5096 80.1809 69.8213 79.0186C70.1329 77.8563 71.1336 76.753 72.3561 76.7884C73.4887 76.7884 74.3996 77.8268 74.6812 78.9124C74.8819 80.0176 74.839 81.1525 74.5554 82.2399C74.7352 82.6824 75.3644 82.1515 75.4723 81.6913C76.2992 77.9861 76.485 73.8385 79.0978 71.0714C79.6294 71.613 80.0164 72.2759 80.2244 73.0007C80.615 72.6023 81.1116 72.3203 81.6573 72.1867C82.2031 72.0532 82.776 72.0735 83.3106 72.2455C84.0688 72.5704 84.7658 73.0192 85.372 73.573C91.7362 78.464 105.591 77.0126 106.927 67.6435Z" fill="#3F3D56"/>
<path d="M61.0184 106.005C59.0305 107.445 58.0602 109.978 58.001 112.422C57.9418 114.867 60.5332 130.376 62.9767 134.781C64.87 138.205 68.8163 147.144 74.8096 149.612C76.5845 150.344 102.824 150.037 115 148.72C114.923 145.845 114.781 142.97 114.592 140.095C114.61 139.715 114.494 139.342 114.266 139.038C113.959 138.719 113.521 136.635 113.083 136.635C105.983 136.664 98.8245 138.831 91.7247 138.996C90.6936 139.063 89.6582 139.001 88.6423 138.813C87.8107 138.606 87.0135 138.28 86.2757 137.845C80.7971 134.751 77.7678 128.676 75.6261 122.766C73.9872 118.208 72.6679 113.491 70.3013 109.234C69.4611 107.717 68.7098 106.241 67.0532 105.574C65.1066 104.788 62.8229 104.7 61.0184 106.005Z" fill="#21ABCB"/>
<path d="M61.0184 106.005C59.0305 107.445 58.0602 109.978 58.001 112.422C57.9418 114.867 60.5332 130.376 62.9767 134.781C64.87 138.205 68.8163 147.144 74.8096 149.612C76.5845 150.344 102.824 150.037 115 148.72C114.923 145.845 114.781 142.97 114.592 140.095C114.61 139.715 114.494 139.342 114.266 139.038C113.959 138.719 113.521 136.635 113.083 136.635C105.983 136.664 98.8245 138.831 91.7247 138.996C90.6936 139.063 89.6582 139.001 88.6423 138.813C87.8107 138.606 87.0135 138.28 86.2757 137.845C80.7971 134.751 77.7678 128.676 75.6261 122.766C73.9872 118.208 72.6679 113.491 70.3013 109.234C69.4611 107.717 68.7098 106.241 67.0532 105.574C65.1066 104.788 62.8229 104.7 61.0184 106.005Z" fill="url(#paint2_linear_69019_2)"/>
<path d="M114.195 136.076C117.96 135.726 122.142 136.55 124.529 139.426C124.78 139.688 124.944 140.019 125 140.375C124.997 140.695 124.896 141.007 124.71 141.27C123.302 143.565 120.244 144.11 117.676 145.017C116.34 145.487 115.065 146.108 113.875 146.868C113.206 147.389 112.431 147.765 111.603 147.97C109.79 148.237 108.285 146.648 107.464 145.059C106.521 143.28 105.046 139.627 106.859 137.943C108.34 136.609 112.334 136.242 114.195 136.076Z" fill="#FFDAD2"/>
<path d="M144.955 135.305C145.62 135.674 146.192 136.185 146.628 136.799C146.841 137.11 146.967 137.47 146.994 137.843C147.022 138.216 146.949 138.59 146.784 138.927C146.501 139.342 146.115 139.681 145.663 139.912C142.348 141.84 138.283 142.186 134.927 144.015C134.238 144.504 133.448 144.84 132.613 144.999C132.122 145.01 131.635 144.91 131.19 144.706C130.745 144.503 130.354 144.202 130.047 143.827C129.436 143.081 128.967 142.233 128.662 141.324C124.736 131.243 139.309 131.788 144.955 135.305Z" fill="#FFDAD2"/>
<path d="M51 131H66V143.57C66 144.745 65.5425 145.872 64.7283 146.702C63.914 147.533 62.8096 148 61.658 148H55.342C54.1904 148 53.086 147.533 52.2717 146.702C51.4575 145.872 51 144.745 51 143.57V131Z" fill="white"/>
<path d="M65 134H69.4539C70.3944 134 71.2963 134.393 71.9614 135.092C72.6264 135.791 73 136.739 73 137.728V139.272C73 140.261 72.6264 141.209 71.9614 141.908C71.2963 142.607 70.3944 143 69.4539 143H65V134Z" stroke="white" stroke-width="3.03781" stroke-miterlimit="10"/>
<path d="M237.699 148H29.3013C27.478 148 26 149.343 26 151C26 152.657 27.478 154 29.3013 154H237.699C239.522 154 241 152.657 241 151C241 149.343 239.522 148 237.699 148Z" fill="#21ABCB"/>
<path d="M200 154H82V195H200V154Z" fill="#21ABCB"/>
<path d="M83 154H36V195H83V154Z" fill="#21ABCB"/>
<path d="M200 154H83V195H200V154Z" fill="url(#paint3_linear_69019_2)"/>
<path d="M83 154H36V195H83V154Z" fill="url(#paint4_linear_69019_2)"/>
<path opacity="0.18" d="M241 12.4545V39H21V12.4545C21 11.0131 21.5591 9.63033 22.5552 8.60827C23.5513 7.58622 24.9034 7.00801 26.316 7H235.684C237.097 7.00801 238.449 7.58622 239.445 8.60827C240.441 9.63033 241 11.0131 241 12.4545Z" fill="#21ABCB"/>
<path d="M115.871 148H192.129C194.267 148 196 146.209 196 144C196 141.791 194.267 140 192.129 140H115.871C113.733 140 112 141.791 112 144C112 146.209 113.733 148 115.871 148Z" fill="#21ABCB"/>
<path d="M115.871 148H192.129C194.267 148 196 146.209 196 144C196 141.791 194.267 140 192.129 140H115.871C113.733 140 112 141.791 112 144C112 146.209 113.733 148 115.871 148Z" fill="url(#paint5_linear_69019_2)"/>
<path d="M142 148H200.367L215.762 108.719C215.967 108.195 216.041 107.629 215.979 107.071C215.916 106.512 215.719 105.976 215.405 105.511C215.09 105.046 214.668 104.666 214.174 104.402C213.68 104.139 213.13 104.001 212.571 104H166.769C164.553 104.004 162.39 104.678 160.559 105.933C158.729 107.189 157.315 108.969 156.501 111.042L142 148Z" fill="#21ABCB"/>
<path d="M145 148H201.001L215.77 110.502C215.967 110.003 216.039 109.463 215.98 108.929C215.92 108.395 215.732 107.884 215.43 107.44C215.128 106.996 214.722 106.632 214.247 106.381C213.773 106.131 213.244 106 212.707 106H168.765C166.637 105.999 164.557 106.639 162.797 107.837C161.037 109.035 159.677 110.736 158.896 112.718L145 148Z" fill="#21ABCB"/>
<path d="M145 148H201.001L215.77 110.502C215.967 110.003 216.039 109.463 215.98 108.929C215.92 108.395 215.732 107.884 215.43 107.44C215.128 106.996 214.722 106.632 214.247 106.381C213.773 106.131 213.244 106 212.707 106H168.765C166.637 105.999 164.557 106.639 162.797 107.837C161.037 109.035 159.677 110.736 158.896 112.718L145 148Z" fill="url(#paint6_linear_69019_2)"/>
<path opacity="0.51" d="M208 92H126V96H208V92Z" fill="white"/>
<path d="M184 84H126V88H184V84Z" fill="white"/>
<path d="M231 84H192V88H231V84Z" fill="white"/>
<path d="M231 54H171V59H231V54Z" fill="white"/>
<path opacity="0.51" d="M223 62H159V66H223V62Z" fill="white"/>
<path d="M167 54H127V59H167V54Z" fill="white"/>
<path d="M231 69H144V73H231V69Z" fill="white"/>
<path opacity="0.51" d="M140 69H127V73H140V69Z" fill="white"/>
<path opacity="0.51" d="M231 76H174V80H231V76Z" fill="white"/>
<path d="M167 76H127V80H167V76Z" fill="white"/>
<path d="M152 62H127V66H152V62Z" fill="white"/>
<path d="M209 41H149V45H209V41Z" fill="white"/>
<path opacity="0.51" d="M201 48H137V52H201V48Z" fill="white"/>
<path d="M145 41H105V45H145V41Z" fill="white"/>
<path d="M209 32H149V36H209V32Z" fill="white"/>
<path d="M144 24H105V29H144V24Z" fill="white"/>
<path d="M144 17H105V21H144V17Z" fill="white"/>
<path d="M130 48H105V52H130V48Z" fill="white"/>
<defs>
<linearGradient id="paint0_linear_69019_2" x1="88.0245" y1="123.434" x2="117.731" y2="134.772" gradientUnits="userSpaceOnUse">
<stop offset="0.01"/>
<stop offset="0.12" stop-opacity="0.75"/>
<stop offset="1" stop-opacity="0"/>
</linearGradient>
<linearGradient id="paint1_linear_69019_2" x1="73.1735" y1="156.367" x2="64.2168" y2="101.587" gradientUnits="userSpaceOnUse">
<stop offset="0.01"/>
<stop offset="0.12" stop-opacity="0.75"/>
<stop offset="1" stop-opacity="0"/>
</linearGradient>
<linearGradient id="paint2_linear_69019_2" x1="76.3065" y1="152.576" x2="91.1166" y2="119.177" gradientUnits="userSpaceOnUse">
<stop offset="0.01"/>
<stop offset="0.12" stop-opacity="0.75"/>
<stop offset="1" stop-opacity="0"/>
</linearGradient>
<linearGradient id="paint3_linear_69019_2" x1="155.97" y1="125.697" x2="130.233" y2="211.852" gradientUnits="userSpaceOnUse">
<stop offset="0.01"/>
<stop offset="0.12" stop-opacity="0.75"/>
<stop offset="1" stop-opacity="0"/>
</linearGradient>
<linearGradient id="paint4_linear_69019_2" x1="49.9559" y1="129.785" x2="74.5402" y2="247.793" gradientUnits="userSpaceOnUse">
<stop offset="0.01"/>
<stop offset="0.12" stop-opacity="0.75"/>
<stop offset="1" stop-opacity="0"/>
</linearGradient>
<linearGradient id="paint5_linear_69019_2" x1="153.84" y1="151.767" x2="154.214" y2="135.068" gradientUnits="userSpaceOnUse">
<stop offset="0.01"/>
<stop offset="0.12" stop-opacity="0.75"/>
<stop offset="1" stop-opacity="0"/>
</linearGradient>
<linearGradient id="paint6_linear_69019_2" x1="179.198" y1="161.693" x2="181.619" y2="100.45" gradientUnits="userSpaceOnUse">
<stop offset="0.01"/>
<stop offset="0.12" stop-opacity="0.75"/>
<stop offset="1" stop-opacity="0"/>
</linearGradient>
</defs>
</svg>
