<svg width="484" height="329" viewBox="0 0 484 329" fill="none" xmlns="http://www.w3.org/2000/svg">
<path opacity="0.3" d="M386.239 138.512C411.581 146.687 431.238 169.673 436.338 198.428C440.634 222.668 433.507 252.442 391.867 266.276C349.364 280.386 230.506 287.173 208.454 247.887C186.403 208.6 190.976 158.213 236.293 140.309C268.051 127.821 336.742 122.538 386.239 138.512Z" fill="#E6E6E6"/>
<path d="M390.208 273.44H320.419V290.542H390.208V273.44Z" fill="#C9C9C9"/>
<path d="M395.334 256.338H332.446V273.44H395.334V256.338Z" fill="#E6E6E6"/>
<path d="M261.87 285.084C261.87 285.084 260.856 288.16 258.302 288.427C255.748 288.695 255.086 291.378 257.381 292.088C259.676 292.799 265.588 289.581 265.588 289.581L265.421 285.568L261.87 285.084Z" fill="#68E1FD"/>
<path d="M296.902 285.084C296.902 285.084 297.924 288.16 300.47 288.427C303.016 288.695 303.686 291.378 301.391 292.088C299.097 292.799 293.192 289.581 293.192 289.581L293.351 285.568L296.902 285.084Z" fill="#68E1FD"/>
<path d="M271.275 225.912L261.326 285.635H266.3L278.771 253.211C282.979 241.983 290.753 232.436 300.906 226.029L304.566 223.763L271.275 225.912Z" fill="#24285B"/>
<path d="M304.557 223.763L299.415 285.619H292.807C292.807 285.619 294.348 239.068 282.422 229.155L304.557 223.763Z" fill="#24285B"/>
<path d="M306.157 171.989C306.157 171.989 331.743 199.656 349.523 208.082L346.173 216.583C346.173 216.583 303.1 201.805 294.951 190.311C286.802 178.818 306.157 171.989 306.157 171.989Z" fill="#68E1FD"/>
<path opacity="0.46" d="M306.157 171.989C306.157 171.989 331.743 199.656 349.523 208.082L346.173 216.583C346.173 216.583 303.1 201.805 294.951 190.311C286.802 178.818 306.157 171.989 306.157 171.989Z" fill="white"/>
<path d="M282.866 147.071C282.866 147.071 283.821 151.677 283.41 154.87C283.369 155.179 283.267 155.476 283.111 155.745C282.954 156.015 282.745 156.251 282.497 156.439C282.249 156.628 281.966 156.766 281.664 156.845C281.362 156.924 281.048 156.943 280.739 156.901C279.734 156.827 278.772 156.465 277.968 155.858C277.165 155.252 276.553 154.427 276.208 153.482L274.324 149.562C274.028 148.738 273.996 147.842 274.233 146.998C274.47 146.155 274.964 145.407 275.647 144.856C278.059 142.649 282.422 144.229 282.866 147.071Z" fill="#F4A28C"/>
<path d="M274.667 150.273L274.056 165.686L282.59 165.419L279.608 154.31L274.667 150.273Z" fill="#F4A28C"/>
<path d="M281.727 147.405C280.287 147.629 278.826 147.688 277.372 147.581C277.864 148.168 278.174 148.886 278.264 149.646C278.353 150.406 278.218 151.176 277.875 151.861C277.556 152.53 277.014 153.068 276.342 153.382C275.669 153.696 274.909 153.767 274.19 153.583L273.553 147.564C273.432 146.707 273.546 145.834 273.882 145.036C274.219 144.239 274.765 143.547 275.463 143.034C276.066 142.587 276.699 142.179 277.355 141.813C279.03 140.919 281.677 141.813 283.092 140.418C283.236 140.284 283.412 140.19 283.603 140.144C283.794 140.098 283.993 140.101 284.182 140.154C284.371 140.207 284.544 140.307 284.683 140.446C284.822 140.584 284.923 140.756 284.977 140.944C285.462 142.741 285.479 145.658 283.117 146.946C282.682 147.174 282.213 147.33 281.727 147.405Z" fill="#24285B"/>
<path d="M278.36 151.66C278.36 151.66 278.117 149.863 276.777 150.164C275.437 150.465 275.781 153.056 277.615 153.081L278.36 151.66Z" fill="#F4A28C"/>
<path d="M283.318 150.005L284.842 151.677C284.927 151.771 284.986 151.885 285.015 152.008C285.044 152.131 285.041 152.26 285.008 152.382C284.975 152.504 284.912 152.615 284.824 152.707C284.737 152.798 284.628 152.867 284.507 152.906L282.757 153.457L283.318 150.005Z" fill="#F4A28C"/>
<path opacity="0.31" d="M280.362 156.717C279.277 156.576 278.258 156.119 277.431 155.405C277.431 155.405 277.883 158.197 281.292 160.596L280.362 156.717Z" fill="#CE8172"/>
<path d="M304.543 224.522L290.188 225.575L271.261 226.979C270.85 226.394 254.678 203.107 255.005 185.319C255.181 175.924 259.955 168.075 274.058 165.885L279.862 165.701C281.278 165.655 282.69 165.529 284.091 165.325C288.572 164.648 302.031 163.82 309.342 176.526C318.161 191.914 304.543 224.522 304.543 224.522Z" fill="#68E1FD"/>
<path opacity="0.08" d="M290.538 225.569L271.275 226.806C270.865 226.221 254.693 202.933 255.019 185.146C265.907 180.13 283.494 178.392 283.494 178.392C283.494 178.392 287.087 182.086 282.816 187.185C277.565 193.454 275.714 202.03 278.846 209.587C280.873 214.452 283.762 222.175 290.186 225.41L290.538 225.569Z" fill="black"/>
<path d="M282.003 172.231C280.283 169.979 277.887 168.336 275.164 167.54C272.441 166.745 269.535 166.839 266.87 167.809C256.82 171.362 239.643 179.846 237.792 196.664C235.17 220.554 273.436 225.795 273.436 225.795L274.675 219.718C274.675 219.718 235.036 197.6 273.436 186.458C273.436 186.458 288.795 181.392 282.003 172.231Z" fill="#68E1FD"/>
<path opacity="0.46" d="M282.003 172.231C280.283 169.979 277.887 168.336 275.164 167.54C272.441 166.745 269.535 166.839 266.87 167.809C256.82 171.362 239.643 179.846 237.792 196.664C235.17 220.554 273.436 225.795 273.436 225.795L274.675 219.718C274.675 219.718 235.036 197.6 273.436 186.458C273.436 186.458 288.795 181.392 282.003 172.231Z" fill="white"/>
<path d="M274.725 220.604C274.725 220.604 281.283 220.721 280.127 224.783C278.972 228.845 273.427 225.761 273.427 225.761L274.725 220.604Z" fill="#F4A28C"/>
<path d="M348.97 209.461C349.037 209.311 355.402 208.625 355.804 209.043C356.708 210.005 354.389 210.398 354.389 210.398C354.389 210.398 357.839 210.398 358.333 211.024C358.827 211.651 358.124 213.365 355.092 214.427C352.06 215.488 346.893 214.694 346.893 214.694L348.97 209.461Z" fill="#F4A28C"/>
<path d="M352.437 211.367C360.467 211.367 366.976 206.921 366.976 201.437C366.976 195.953 360.467 191.507 352.437 191.507C344.407 191.507 337.898 195.953 337.898 201.437C337.898 206.921 344.407 211.367 352.437 211.367Z" fill="#C9C9C9"/>
<path d="M352.437 185.087C372.151 185.087 388.131 169.137 388.131 149.462C388.131 129.786 372.151 113.836 352.437 113.836C332.724 113.836 316.743 129.786 316.743 149.462C316.743 169.137 332.724 185.087 352.437 185.087Z" fill="#FFD200"/>
<path d="M368.517 181.359H336.357V203.961H368.517V181.359Z" fill="#24285B"/>
<path d="M344.916 181.359C344.916 179.629 337.898 145.725 337.898 145.725H366.08L358.475 181.359" stroke="#24285B" stroke-width="1.015" stroke-miterlimit="10"/>
<path opacity="0.58" d="M376.993 247.853C376.993 247.853 370.293 246.023 368.827 239.796C368.827 239.796 379.22 237.697 379.513 248.405L376.993 247.853Z" fill="#68E1FD"/>
<path opacity="0.73" d="M377.813 247.193C377.813 247.193 373.132 239.796 377.252 232.883C377.252 232.883 385.158 237.898 381.649 247.201L377.813 247.193Z" fill="#68E1FD"/>
<path d="M379.019 247.193C379.019 247.193 381.532 239.386 388.986 237.906C388.986 237.906 390.393 242.98 384.136 247.218L379.019 247.193Z" fill="#68E1FD"/>
<path d="M374.162 247.018L375.519 256.304L384.078 256.338L385.342 247.068L374.162 247.018Z" fill="#24285B"/>
<g clip-path="url(#clip0_69001_288)">
<path opacity="0.48" d="M258.495 7.66574H38.7024C35.6204 7.66574 33.1219 10.161 33.1219 13.2391V149.834C33.1219 152.912 35.6204 155.407 38.7024 155.407H258.495C261.577 155.407 264.076 152.912 264.076 149.834V13.2391C264.076 10.161 261.577 7.66574 258.495 7.66574Z" fill="#21ABCB"/>
<path opacity="0.18" d="M259.505 166.193C259.337 171.031 258.227 175.957 255.515 179.967C252.098 185.018 246.548 188.144 241.174 191.083L225.935 199.459C219.257 203.133 212.217 206.894 204.604 207C199.217 207.081 194.004 205.306 188.822 203.818C164.623 196.843 139.134 195.866 114.118 197.628C101.304 198.531 88.5533 200.119 75.8583 202.031C65.7011 203.538 53.5112 208.551 44.3516 202.616C34.3752 196.14 28.2521 185.653 22.6155 175.471C17.7083 166.635 12.7326 157.581 11.1114 147.611C8.61734 132.204 14.5907 116.381 23.9374 103.864C26.7482 100.126 29.8172 96.5888 33.1219 93.278V149.84C33.1219 151.321 33.7088 152.742 34.7545 153.792C35.8001 154.842 37.2195 155.436 38.7024 155.445H258.489C259.271 158.972 259.613 162.582 259.505 166.193Z" fill="#21ABCB"/>
<path opacity="0.18" d="M177.387 7.67197H118.62C120.831 5.99232 123.234 4.57934 125.778 3.46235C130.423 1.43849 135.486 0.535538 140.537 0.174358C153.244 -0.741048 165.989 2.06121 177.387 7.67197Z" fill="#21ABCB"/>
<path d="M123.614 136.813C124.187 137.571 124.875 138.235 125.653 138.781C126.81 139.404 128.084 139.781 129.394 139.889L149.297 142.884C149.495 142.898 149.686 142.962 149.852 143.071C149.962 143.191 150.046 143.333 150.096 143.488C150.147 143.642 150.164 143.806 150.145 143.968C150.237 147.689 149.734 151.402 148.655 154.965C148.598 155.257 148.457 155.525 148.25 155.737C147.981 155.919 147.663 156.014 147.339 156.011C140.643 156.578 133.915 156.397 127.199 156.217C126.07 156.233 124.944 156.109 123.845 155.849C121.974 155.326 120.447 154.05 119.037 152.736C116.013 149.927 103.774 138.637 103.032 137.105C102.048 134.911 101.255 132.636 100.662 130.305C100.039 128.063 104.597 127.783 104.503 125.454C104.437 123.844 104.631 122.233 105.077 120.684C105.408 119.303 106.096 118.032 107.072 116.998C107.758 116.375 106.698 112.153 107.646 112.103C108.743 115.839 113.706 123.312 115.864 126.513C118.262 130.082 120.849 133.52 123.614 136.813Z" fill="#21ABCB"/>
<path d="M123.614 136.813C124.187 137.571 124.875 138.235 125.653 138.781C126.81 139.404 128.084 139.781 129.394 139.889L149.297 142.884C149.495 142.898 149.686 142.962 149.852 143.071C149.962 143.191 150.046 143.333 150.096 143.488C150.147 143.642 150.164 143.806 150.145 143.968C150.237 147.689 149.734 151.402 148.655 154.965C148.598 155.257 148.457 155.525 148.25 155.737C147.981 155.919 147.663 156.014 147.339 156.011C140.643 156.578 133.915 156.397 127.199 156.217C126.07 156.233 124.944 156.109 123.845 155.849C121.974 155.326 120.447 154.05 119.037 152.736C116.013 149.927 103.774 138.637 103.032 137.105C102.048 134.911 101.255 132.636 100.662 130.305C100.039 128.063 104.597 127.783 104.503 125.454C104.437 123.844 104.631 122.233 105.077 120.684C105.408 119.303 106.096 118.032 107.072 116.998C107.758 116.375 106.698 112.153 107.646 112.103C108.743 115.839 113.706 123.312 115.864 126.513C118.262 130.082 120.849 133.52 123.614 136.813Z" fill="url(#paint0_linear_69001_288)"/>
<path d="M73.252 105.265C71.9115 106.459 70.6611 107.749 69.5108 109.126C66.7548 112.508 64.9217 116.531 63.2132 120.541C58.6677 131.214 54.7083 142.629 55.8868 154.168C55.9091 154.862 56.0972 155.541 56.4355 156.148C56.9722 156.835 57.726 157.32 58.5742 157.524C60.7628 158.222 63.101 158.253 65.433 158.272C74.418 158.353 83.4154 158.434 92.3942 157.998C93.7847 157.929 95.2562 157.823 96.4097 157.039C97.2523 156.395 97.9244 155.554 98.3676 154.591C100.781 150.058 101.485 144.815 103.356 140.045C105.85 133.817 112.709 128.157 111.262 121.593C105.077 93.7263 76.0828 102.694 73.252 105.265Z" fill="#21ABCB"/>
<path d="M73.252 105.265C71.9115 106.459 70.6611 107.749 69.5108 109.126C66.7548 112.508 64.9217 116.531 63.2132 120.541C58.6677 131.214 54.7083 142.629 55.8868 154.168C55.9091 154.862 56.0972 155.541 56.4355 156.148C56.9722 156.835 57.726 157.32 58.5742 157.524C60.7628 158.222 63.101 158.253 65.433 158.272C74.418 158.353 83.4154 158.434 92.3942 157.998C93.7847 157.929 95.2562 157.823 96.4097 157.039C97.2523 156.395 97.9244 155.554 98.3676 154.591C100.781 150.058 101.485 144.815 103.356 140.045C105.85 133.817 112.709 128.157 111.262 121.593C105.077 93.7263 76.0828 102.694 73.252 105.265Z" fill="url(#paint1_linear_69001_288)"/>
<path d="M113.856 82.181C112.802 87.2936 111.699 92.5432 108.868 96.9458C107.836 98.7236 106.343 100.191 104.547 101.193C102.72 102.108 100.4 102.233 98.6918 101.112C97.8376 100.558 96.9023 99.6858 95.9732 100.097C95.2998 100.402 95.0816 101.236 94.9881 101.965C94.754 103.755 94.7792 105.569 95.0629 107.352C95.1786 107.854 95.2081 108.372 95.1502 108.883C95.0294 109.357 94.7737 109.786 94.414 110.117C94.0544 110.449 93.6062 110.669 93.1237 110.752C92.1591 110.892 91.1745 110.738 90.2991 110.309C88.9375 109.701 87.7459 108.769 86.8285 107.594C85.911 106.42 85.2958 105.039 85.0366 103.572C84.9058 102.581 84.8433 101.582 84.8495 100.583C84.7311 96.1487 84.0265 91.7336 84.1699 87.306C84.3133 82.8785 85.4169 78.2703 88.4286 75.001C90.1678 73.2208 92.2339 71.7915 94.5142 70.7914C97.9124 69.1723 101.703 68.0327 105.42 68.6243C106.898 68.8576 108.309 69.4081 109.554 70.238C110.8 71.068 111.85 72.1575 112.634 73.4317C114.579 76.4146 114.585 78.6377 113.856 82.181Z" fill="#FFDAD2"/>
<path d="M123.14 70.9159C123.393 68.8379 123.007 66.7321 122.032 64.8788C121.058 63.0255 119.541 61.5126 117.684 60.5413C116.032 59.7193 114.193 59.3706 112.409 58.8973C108.232 57.7764 104.222 55.9207 99.9388 55.5222C95.6552 55.1236 90.7294 56.6244 88.8214 60.504C88.4722 61.2139 88.1293 62.0732 87.3623 62.2601C86.9433 62.3051 86.5195 62.267 86.1153 62.148C83.2533 61.6436 80.6782 64.0846 79.3875 66.6814C77.3049 70.8848 77.1989 75.7856 77.6541 80.4499C78.0718 84.7653 79.1755 89.4295 82.6423 92.0574C82.9852 92.319 83.4903 92.5556 83.8207 92.2754C83.972 92.1175 84.0664 91.9137 84.0888 91.6963C84.4375 90.06 84.5675 88.3848 84.4754 86.7145C84.4068 85.469 84.2073 84.1488 84.5315 82.9221C84.8558 81.6953 85.8971 80.5308 87.169 80.5682C88.3475 80.5682 89.2953 81.6642 89.5883 82.81C89.7972 83.9765 89.7525 85.1743 89.4574 86.3221C89.6444 86.7892 90.2991 86.2287 90.4114 85.743C91.2718 81.8323 91.4651 77.4545 94.1837 74.534C94.7368 75.1056 95.1395 75.8052 95.3559 76.5703C95.7623 76.1498 96.279 75.8521 96.8469 75.7112C97.4148 75.5702 98.0109 75.5917 98.5671 75.7732C99.356 76.1161 100.081 76.5899 100.712 77.1743C107.334 82.3367 121.75 80.8048 123.14 70.9159Z" fill="#3F3D56"/>
<path d="M75.16 111.642C73.0649 113.162 72.0423 115.833 71.98 118.411C71.9176 120.989 74.6487 137.348 77.2238 141.994C79.2191 145.606 83.378 155.034 89.6943 157.637C91.5649 158.409 119.218 158.085 132.05 156.696C131.969 153.664 131.82 150.631 131.62 147.598C131.639 147.198 131.518 146.804 131.277 146.484C130.953 146.147 130.492 143.949 130.03 143.949C122.548 143.98 115.003 146.266 107.521 146.44C106.434 146.51 105.343 146.445 104.272 146.247C103.396 146.029 102.556 145.685 101.778 145.226C96.0044 141.963 92.812 135.555 90.5548 129.321C88.8276 124.514 87.4372 119.538 84.9431 115.048C84.0577 113.448 83.2658 111.891 81.5199 111.188C79.4685 110.359 77.0617 110.266 75.16 111.642Z" fill="#21ABCB"/>
<path d="M75.16 111.642C73.0649 113.162 72.0423 115.833 71.98 118.411C71.9176 120.989 74.6487 137.348 77.2238 141.994C79.2191 145.606 83.378 155.034 89.6943 157.637C91.5649 158.409 119.218 158.085 132.05 156.696C131.969 153.664 131.82 150.631 131.62 147.598C131.639 147.198 131.518 146.804 131.277 146.484C130.953 146.147 130.492 143.949 130.03 143.949C122.548 143.98 115.003 146.266 107.521 146.44C106.434 146.51 105.343 146.445 104.272 146.247C103.396 146.029 102.556 145.685 101.778 145.226C96.0044 141.963 92.812 135.555 90.5548 129.321C88.8276 124.514 87.4372 119.538 84.9431 115.048C84.0577 113.448 83.2658 111.891 81.5199 111.188C79.4685 110.359 77.0617 110.266 75.16 111.642Z" fill="url(#paint2_linear_69001_288)"/>
<path d="M130.953 143.364C134.838 142.996 139.152 143.862 141.615 146.882C141.875 147.157 142.044 147.505 142.102 147.878C142.099 148.215 141.995 148.543 141.802 148.819C140.35 151.229 137.194 151.802 134.544 152.754C133.166 153.248 131.85 153.9 130.623 154.697C129.932 155.245 129.133 155.639 128.278 155.856C126.407 156.136 124.855 154.467 124.007 152.798C123.034 150.93 121.513 147.094 123.383 145.325C124.911 143.924 129.033 143.538 130.953 143.364Z" fill="#FFDAD2"/>
<path d="M163.121 142.405C163.812 142.797 164.407 143.34 164.86 143.993C165.082 144.323 165.213 144.705 165.242 145.101C165.27 145.498 165.195 145.895 165.022 146.253C164.728 146.694 164.327 147.054 163.856 147.299C160.408 149.348 156.181 149.716 152.689 151.658C151.973 152.178 151.151 152.535 150.282 152.705C149.772 152.716 149.265 152.609 148.802 152.393C148.339 152.177 147.933 151.858 147.614 151.459C146.978 150.666 146.49 149.766 146.173 148.8C142.089 138.089 157.247 138.668 163.121 142.405Z" fill="#FFDAD2"/>
<path d="M64.3106 137.622H80.4662V150.874C80.4662 152.112 79.9735 153.3 79.0965 154.176C78.2194 155.052 77.03 155.544 75.7897 155.544H68.9871C67.7468 155.544 66.5573 155.052 65.6803 154.176C64.8033 153.3 64.3106 152.112 64.3106 150.874V137.622Z" fill="white"/>
<path d="M79.375 140.835H84.2696C85.3032 140.835 86.2944 141.246 87.0253 141.975C87.7561 142.705 88.1667 143.695 88.1667 144.728V146.34C88.1667 147.373 87.7561 148.363 87.0253 149.092C86.2944 149.822 85.3032 150.232 84.2696 150.232H79.375V140.835Z" stroke="white" stroke-width="3.03781" stroke-miterlimit="10"/>
<path d="M260.989 155.258H42.1443C40.2296 155.258 38.6775 156.807 38.6775 158.717C38.6775 160.628 40.2296 162.176 42.1443 162.176H260.989C262.904 162.176 264.456 160.628 264.456 158.717C264.456 156.807 262.904 155.258 260.989 155.258Z" fill="#21ABCB"/>
<path d="M220.759 162.282H97.0582V205.132H220.759V162.282Z" fill="#21ABCB"/>
<path d="M97.8999 162.282H49.3086V205.132H97.8999V162.282Z" fill="#21ABCB"/>
<path d="M220.766 162.282H97.875V205.132H220.766V162.282Z" fill="url(#paint3_linear_69001_288)"/>
<path d="M97.8999 162.282H49.3086V205.132H97.8999V162.282Z" fill="url(#paint4_linear_69001_288)"/>
<path opacity="0.18" d="M264.069 13.2454V40.5207H33.1219V13.2454C33.1219 11.7643 33.7088 10.3435 34.7545 9.29333C35.8001 8.24317 37.2195 7.64907 38.7024 7.64084H258.489C259.972 7.64907 261.391 8.24317 262.437 9.29333C263.482 10.3435 264.069 11.7643 264.069 13.2454Z" fill="#21ABCB"/>
<path d="M132.805 155.139H212.89C215.136 155.139 216.956 153.322 216.956 151.079C216.956 148.837 215.136 147.019 212.89 147.019H132.805C130.56 147.019 128.739 148.837 128.739 151.079C128.739 153.322 130.56 155.139 132.805 155.139Z" fill="#21ABCB"/>
<path d="M132.805 155.139H212.89C215.136 155.139 216.956 153.322 216.956 151.079C216.956 148.837 215.136 147.019 212.89 147.019H132.805C130.56 147.019 128.739 148.837 128.739 151.079C128.739 153.322 130.56 155.139 132.805 155.139Z" fill="url(#paint5_linear_69001_288)"/>
<path d="M160.577 155.152H222.038L238.249 114.096C238.464 113.549 238.543 112.957 238.477 112.373C238.411 111.789 238.204 111.229 237.873 110.743C237.542 110.257 237.097 109.86 236.577 109.584C236.057 109.309 235.477 109.165 234.888 109.164H186.659C184.326 109.168 182.048 109.872 180.12 111.184C178.192 112.497 176.704 114.357 175.847 116.524L160.577 155.152Z" fill="#21ABCB"/>
<path d="M163.701 155.196H222.075L237.47 116.194C237.675 115.675 237.75 115.113 237.688 114.557C237.627 114.002 237.43 113.471 237.115 113.009C236.8 112.547 236.377 112.169 235.882 111.908C235.388 111.647 234.837 111.511 234.277 111.511H188.473C186.254 111.51 184.086 112.176 182.252 113.422C180.417 114.668 179 116.437 178.185 118.498L163.701 155.196Z" fill="#21ABCB"/>
<path d="M163.701 155.196H222.075L237.47 116.194C237.675 115.675 237.75 115.113 237.688 114.557C237.627 114.002 237.43 113.471 237.115 113.009C236.8 112.547 236.377 112.169 235.882 111.908C235.388 111.647 234.837 111.511 234.277 111.511H188.473C186.254 111.51 184.086 112.176 182.252 113.422C180.417 114.668 179 116.437 178.185 118.498L163.701 155.196Z" fill="url(#paint6_linear_69001_288)"/>
<path opacity="0.51" d="M229.788 96.2795H143.367V101.137H229.788V96.2795Z" fill="white"/>
<path d="M204.803 87.9661H143.367V92.8234H204.803V87.9661Z" fill="white"/>
<path d="M254.33 87.9661H213.202V92.8234H254.33V87.9661Z" fill="white"/>
<path d="M254.186 57.216H190.955V61.5315H254.186V57.216Z" fill="white"/>
<path opacity="0.51" d="M245.357 64.8817H177.711V69.1972H245.357V64.8817Z" fill="white"/>
<path d="M186.129 57.216H144.54V61.5315H186.129V57.216Z" fill="white"/>
<path d="M254.187 72.317H162.784V76.6325H254.187V72.317Z" fill="white"/>
<path opacity="0.51" d="M157.958 72.317H144.54V76.6325H157.958V72.317Z" fill="white"/>
<path opacity="0.51" d="M254.186 79.9828H193.854V84.2983H254.186V79.9828Z" fill="white"/>
<path d="M186.129 79.9828H144.54V84.2983H186.129V79.9828Z" fill="white"/>
<path d="M171.283 64.7011H144.54V69.0166H171.283V64.7011Z" fill="white"/>
<path d="M231.06 42.6878H167.828V47.0033H231.06V42.6878Z" fill="white"/>
<path opacity="0.51" d="M222.231 50.3535H154.585V54.669H222.231V50.3535Z" fill="white"/>
<path d="M163.008 42.6878H121.419V47.0033H163.008V42.6878Z" fill="white"/>
<path d="M230.499 33.7517H167.267V38.0672H230.499V33.7517Z" fill="white"/>
<path d="M162.447 25.6438H120.858V29.9593H162.447V25.6438Z" fill="white"/>
<path d="M162.447 18.2458H120.858V22.5613H162.447V18.2458Z" fill="white"/>
<path d="M148.162 50.1729H121.419V54.4884H148.162V50.1729Z" fill="white"/>
</g>
<defs>
<linearGradient id="paint0_linear_69001_288" x1="103.792" y1="129.433" x2="135.114" y2="141.385" gradientUnits="userSpaceOnUse">
<stop offset="0.01"/>
<stop offset="0.12" stop-opacity="0.75"/>
<stop offset="1" stop-opacity="0"/>
</linearGradient>
<linearGradient id="paint1_linear_69001_288" x1="87.8799" y1="163.951" x2="78.3948" y2="106.675" gradientUnits="userSpaceOnUse">
<stop offset="0.01"/>
<stop offset="0.12" stop-opacity="0.75"/>
<stop offset="1" stop-opacity="0"/>
</linearGradient>
<linearGradient id="paint2_linear_69001_288" x1="91.2718" y1="160.763" x2="106.901" y2="125.545" gradientUnits="userSpaceOnUse">
<stop offset="0.01"/>
<stop offset="0.12" stop-opacity="0.75"/>
<stop offset="1" stop-opacity="0"/>
</linearGradient>
<linearGradient id="paint3_linear_69001_288" x1="174.519" y1="132.703" x2="147.733" y2="222.817" gradientUnits="userSpaceOnUse">
<stop offset="0.01"/>
<stop offset="0.12" stop-opacity="0.75"/>
<stop offset="1" stop-opacity="0"/>
</linearGradient>
<linearGradient id="paint4_linear_69001_288" x1="63.737" y1="136.975" x2="89.6865" y2="260.194" gradientUnits="userSpaceOnUse">
<stop offset="0.01"/>
<stop offset="0.12" stop-opacity="0.75"/>
<stop offset="1" stop-opacity="0"/>
</linearGradient>
<linearGradient id="paint5_linear_69001_288" x1="172.679" y1="158.963" x2="173.046" y2="142.012" gradientUnits="userSpaceOnUse">
<stop offset="0.01"/>
<stop offset="0.12" stop-opacity="0.75"/>
<stop offset="1" stop-opacity="0"/>
</linearGradient>
<linearGradient id="paint6_linear_69001_288" x1="199.347" y1="169.437" x2="201.86" y2="105.738" gradientUnits="userSpaceOnUse">
<stop offset="0.01"/>
<stop offset="0.12" stop-opacity="0.75"/>
<stop offset="1" stop-opacity="0"/>
</linearGradient>
<clipPath id="clip0_69001_288">
<rect width="275" height="207" fill="white"/>
</clipPath>
</defs>
</svg>
