<svg width="568" height="38" viewBox="0 0 568 38" fill="none" xmlns="http://www.w3.org/2000/svg">
<path d="M28.5246 37H0.704594V0.807998H14.7966C17.8126 0.807998 20.2739 1.34533 22.1806 2.42C24.0526 3.46 25.5086 4.88133 26.5486 6.684C27.5886 8.48667 28.1086 10.48 28.1086 12.664C28.1086 15.368 27.2766 17.7947 25.6126 19.944C23.9486 22.0587 21.8513 23.4627 19.3206 24.156L28.5246 37ZM3.98059 2.732L18.1246 22.492C20.4473 22.0067 22.3713 20.8453 23.8966 19.008C25.4219 17.1707 26.1846 15.056 26.1846 12.664C26.1846 10.7573 25.7166 9.024 24.7806 7.464C23.8446 5.904 22.5273 4.708 20.8286 3.876C19.3033 3.11333 17.3099 2.732 14.8486 2.732H3.98059ZM2.62859 3.98V22.648H15.9926L2.62859 3.98ZM2.62859 35.076H24.8846L17.2926 24.52L15.6806 24.572H2.62859V35.076ZM52.0408 0.0279987C54.7448 0.0279987 57.2408 0.703998 59.5288 2.056C61.8168 3.37333 63.6194 5.176 64.9368 7.464C66.2888 9.752 66.9648 12.248 66.9648 14.952V22.856C66.9648 25.56 66.2888 28.056 64.9368 30.344C63.6194 32.632 61.8168 34.452 59.5288 35.804C57.2408 37.1213 54.7448 37.78 52.0408 37.78C49.3368 37.78 46.8408 37.1213 44.5528 35.804C42.2648 34.452 40.4448 32.632 39.0928 30.344C37.7754 28.056 37.1168 25.56 37.1168 22.856V14.952C37.1168 12.248 37.7754 9.752 39.0928 7.464C40.4448 5.176 42.2648 3.37333 44.5528 2.056C46.8408 0.703998 49.3368 0.0279987 52.0408 0.0279987ZM39.0408 22.856C39.0408 25.2133 39.6128 27.3973 40.7568 29.408C41.9354 31.384 43.5128 32.9613 45.4888 34.14C47.4994 35.284 49.6834 35.856 52.0408 35.856C54.3981 35.856 56.5648 35.284 58.5408 34.14C60.5514 32.9613 62.1288 31.384 63.2728 29.408C64.4514 27.3973 65.0408 25.2133 65.0408 22.856V14.952C65.0408 12.5947 64.4514 10.428 63.2728 8.452C62.1288 6.44133 60.5514 4.864 58.5408 3.72C56.5648 2.54133 54.3981 1.952 52.0408 1.952C49.6834 1.952 47.4994 2.54133 45.4888 3.72C43.5128 4.864 41.9354 6.44133 40.7568 8.452C39.6128 10.428 39.0408 12.5947 39.0408 14.952V22.856ZM90.169 0.807998C92.8036 0.807998 95.2303 1.46666 97.449 2.784C99.7023 4.10133 101.488 5.88667 102.805 8.14C104.122 10.3587 104.781 12.7853 104.781 15.42V22.388C104.781 25.0227 104.122 27.4667 102.805 29.72C101.488 31.9387 99.7023 33.7067 97.449 35.024C95.2303 36.3413 92.8036 37 90.169 37H76.805V0.807998H90.169ZM102.857 15.42C102.857 13.132 102.285 11.0173 101.141 9.076C99.997 7.13466 98.437 5.592 96.461 4.448C94.5196 3.304 92.405 2.732 90.117 2.732H78.729V35.076H90.117C92.405 35.076 94.5196 34.504 96.461 33.36C98.437 32.216 99.997 30.6733 101.141 28.732C102.285 26.7907 102.857 24.676 102.857 22.388V15.42ZM136.877 2.004C138.957 2.97466 140.586 4.41333 141.765 6.32C142.978 8.22667 143.585 10.3413 143.585 12.664C143.585 15.368 142.753 17.7947 141.089 19.944C139.46 22.0587 137.362 23.4627 134.797 24.156L144.001 37H141.713L132.821 24.52L131.157 24.572H118.105V37H116.181V0.807998H129.961C131.486 0.807998 132.786 0.911998 133.861 1.12C134.97 1.29333 135.976 1.588 136.877 2.004ZM131.677 22.648C133.48 22.648 135.144 22.1973 136.669 21.296C138.194 20.3947 139.408 19.1813 140.309 17.656C141.21 16.1307 141.661 14.4667 141.661 12.664C141.661 10.6533 141.124 8.83333 140.049 7.204C139.009 5.57467 137.553 4.36133 135.681 3.564C134.329 3.00933 132.422 2.732 129.961 2.732H118.105V22.648H131.677ZM179.269 0.807998V2.732H168.453V35.076H179.269V37H155.817V35.076H166.581V2.732H155.817V0.807998H179.269ZM218.75 29.564C217.814 31.956 216.115 33.932 213.654 35.492C211.192 37.0173 208.558 37.78 205.75 37.78C203.046 37.78 200.55 37.104 198.262 35.752C195.974 34.4 194.154 32.5453 192.802 30.188C191.484 27.796 190.826 25.1787 190.826 22.336V15.056C190.826 12.2827 191.484 9.752 192.802 7.464C194.154 5.176 195.956 3.37333 198.21 2.056C200.498 0.703998 203.011 0.0279987 205.75 0.0279987C208.003 0.0279987 210.066 0.409332 211.938 1.172C213.81 1.9 215.404 2.97466 216.722 4.396C217.796 5.57466 218.663 6.892 219.322 8.348C220.015 9.804 220.362 11.2773 220.362 12.768H218.49C218.455 11.4853 218.126 10.22 217.502 8.972C216.912 7.724 216.15 6.59733 215.214 5.592C212.891 3.16533 209.736 1.952 205.75 1.952C203.358 1.952 201.156 2.54133 199.146 3.72C197.17 4.864 195.61 6.44133 194.466 8.452C193.322 10.428 192.75 12.6293 192.75 15.056V22.336C192.75 24.8667 193.322 27.172 194.466 29.252C195.644 31.2973 197.222 32.9093 199.198 34.088C201.208 35.2667 203.392 35.856 205.75 35.856C208.142 35.856 210.326 35.284 212.302 34.14C214.312 32.9613 215.89 31.384 217.034 29.408C218.178 27.3973 218.75 25.2133 218.75 22.856V21.036H205.75V19.112H220.674V37H218.75V29.564ZM244.502 0.0279987C247.206 0.0279987 249.702 0.703998 251.99 2.056C254.278 3.37333 256.08 5.176 257.398 7.464C258.75 9.752 259.426 12.248 259.426 14.952V22.856C259.426 25.56 258.75 28.056 257.398 30.344C256.08 32.632 254.278 34.452 251.99 35.804C249.702 37.1213 247.206 37.78 244.502 37.78C241.798 37.78 239.302 37.1213 237.014 35.804C234.726 34.452 232.906 32.632 231.554 30.344C230.236 28.056 229.578 25.56 229.578 22.856V14.952C229.578 12.248 230.236 9.752 231.554 7.464C232.906 5.176 234.726 3.37333 237.014 2.056C239.302 0.703998 241.798 0.0279987 244.502 0.0279987ZM231.502 22.856C231.502 25.2133 232.074 27.3973 233.218 29.408C234.396 31.384 235.974 32.9613 237.95 34.14C239.96 35.284 242.144 35.856 244.502 35.856C246.859 35.856 249.026 35.284 251.002 34.14C253.012 32.9613 254.59 31.384 255.734 29.408C256.912 27.3973 257.502 25.2133 257.502 22.856V14.952C257.502 12.5947 256.912 10.428 255.734 8.452C254.59 6.44133 253.012 4.864 251.002 3.72C249.026 2.54133 246.859 1.952 244.502 1.952C242.144 1.952 239.96 2.54133 237.95 3.72C235.974 4.864 234.396 6.44133 233.218 8.452C232.074 10.428 231.502 12.5947 231.502 14.952V22.856ZM309.474 37V0.807998H324.606C327.137 0.807998 329.321 1.276 331.158 2.212C333.273 3.28667 334.954 4.82933 336.202 6.84C337.45 8.816 338.074 11 338.074 13.392C338.074 15.784 337.45 17.9853 336.202 19.996C334.989 22.0067 333.325 23.5493 331.21 24.624C329.407 25.56 327.206 26.028 324.606 26.028H318.938V37H309.474ZM358.99 0.807998H361.018L375.89 37H373.81L368.922 25.04H351.086L346.146 37H344.118L358.99 0.807998ZM351.866 23.168H368.142L359.978 3.304L351.866 23.168ZM411.21 29.564C410.274 31.956 408.576 33.932 406.114 35.492C403.653 37.0173 401.018 37.78 398.21 37.78C395.506 37.78 393.01 37.104 390.722 35.752C388.434 34.4 386.614 32.5453 385.262 30.188C383.945 27.796 383.286 25.1787 383.286 22.336V15.056C383.286 12.2827 383.945 9.752 385.262 7.464C386.614 5.176 388.417 3.37333 390.67 2.056C392.958 0.703998 395.472 0.0279987 398.21 0.0279987C400.464 0.0279987 402.526 0.409332 404.398 1.172C406.27 1.9 407.865 2.97466 409.182 4.396C410.257 5.57466 411.124 6.892 411.782 8.348C412.476 9.804 412.822 11.2773 412.822 12.768H410.95C410.916 11.4853 410.586 10.22 409.962 8.972C409.373 7.724 408.61 6.59733 407.674 5.592C405.352 3.16533 402.197 1.952 398.21 1.952C395.818 1.952 393.617 2.54133 391.606 3.72C389.63 4.864 388.07 6.44133 386.926 8.452C385.782 10.428 385.21 12.6293 385.21 15.056V22.336C385.21 24.8667 385.782 27.172 386.926 29.252C388.105 31.2973 389.682 32.9093 391.658 34.088C393.669 35.2667 395.853 35.856 398.21 35.856C400.602 35.856 402.786 35.284 404.762 34.14C406.773 32.9613 408.35 31.384 409.494 29.408C410.638 27.3973 411.21 25.2133 411.21 22.856V21.036H398.21V19.112H413.134V37H411.21V29.564ZM436.963 0.0279987C439.667 0.0279987 442.163 0.703998 444.451 2.056C446.739 3.37333 448.541 5.176 449.859 7.464C451.211 9.752 451.887 12.248 451.887 14.952V22.856C451.887 25.56 451.211 28.056 449.859 30.344C448.541 32.632 446.739 34.452 444.451 35.804C442.163 37.1213 439.667 37.78 436.963 37.78C434.259 37.78 431.763 37.1213 429.475 35.804C427.187 34.452 425.367 32.632 424.015 30.344C422.697 28.056 422.039 25.56 422.039 22.856V14.952C422.039 12.248 422.697 9.752 424.015 7.464C425.367 5.176 427.187 3.37333 429.475 2.056C431.763 0.703998 434.259 0.0279987 436.963 0.0279987ZM423.963 22.856C423.963 25.2133 424.535 27.3973 425.679 29.408C426.857 31.384 428.435 32.9613 430.411 34.14C432.421 35.284 434.605 35.856 436.963 35.856C439.32 35.856 441.487 35.284 443.463 34.14C445.473 32.9613 447.051 31.384 448.195 29.408C449.373 27.3973 449.963 25.2133 449.963 22.856V14.952C449.963 12.5947 449.373 10.428 448.195 8.452C447.051 6.44133 445.473 4.864 443.463 3.72C441.487 2.54133 439.32 1.952 436.963 1.952C434.605 1.952 432.421 2.54133 430.411 3.72C428.435 4.864 426.857 6.44133 425.679 8.452C424.535 10.428 423.963 12.5947 423.963 14.952V22.856ZM490.067 0.807998V2.732H476.391V37H474.519V2.732H460.843V0.807998H490.067ZM528.559 0.807998V2.732H514.883V37H513.011V2.732H499.335V0.807998H528.559ZM552.439 0.0279987C555.143 0.0279987 557.639 0.703998 559.927 2.056C562.215 3.37333 564.018 5.176 565.335 7.464C566.687 9.752 567.363 12.248 567.363 14.952V22.856C567.363 25.56 566.687 28.056 565.335 30.344C564.018 32.632 562.215 34.452 559.927 35.804C557.639 37.1213 555.143 37.78 552.439 37.78C549.735 37.78 547.239 37.1213 544.951 35.804C542.663 34.452 540.843 32.632 539.491 30.344C538.174 28.056 537.515 25.56 537.515 22.856V14.952C537.515 12.248 538.174 9.752 539.491 7.464C540.843 5.176 542.663 3.37333 544.951 2.056C547.239 0.703998 549.735 0.0279987 552.439 0.0279987ZM539.439 22.856C539.439 25.2133 540.011 27.3973 541.155 29.408C542.334 31.384 543.911 32.9613 545.887 34.14C547.898 35.284 550.082 35.856 552.439 35.856C554.797 35.856 556.963 35.284 558.939 34.14C560.95 32.9613 562.527 31.384 563.671 29.408C564.85 27.3973 565.439 25.2133 565.439 22.856V14.952C565.439 12.5947 564.85 10.428 563.671 8.452C562.527 6.44133 560.95 4.864 558.939 3.72C556.963 2.54133 554.797 1.952 552.439 1.952C550.082 1.952 547.898 2.54133 545.887 3.72C543.911 4.864 542.334 6.44133 541.155 8.452C540.011 10.428 539.439 12.5947 539.439 14.952V22.856Z" fill="#FBFAFA"/>
</svg>
